<svg width="20" height="20" viewBox="0 0 20 20" fill="none" xmlns="http://www.w3.org/2000/svg">
  <path d="M6.66659 8.33332C6.66659 6.49166 8.15825 4.99999 9.99992 4.99999V6.66666C9.08325 6.66666 8.33325 7.41666 8.33325 8.33332H6.66659ZM16.6666 9.16666C16.6666 12.725 14.4249 15.8417 11.2999 16.525L12.4999 18.3333H7.49992L8.70825 16.525C5.58325 15.8417 3.33325 12.725 3.33325 9.16666C3.33325 5.13332 6.21659 1.66666 9.99992 1.66666C13.7833 1.66666 16.6666 5.13332 16.6666 9.16666ZM9.99992 15C12.6583 15 14.9999 12.5 14.9999 9.16666C14.9999 5.83332 12.6583 3.33332 9.99992 3.33332C7.34159 3.33332 4.99992 5.83332 4.99992 9.16666C4.99992 12.5 7.34159 15 9.99992 15Z" fill="#F7F9F9"/>
</svg>
