<svg width="20" height="20" viewBox="0 0 20 20" fill="none" xmlns="http://www.w3.org/2000/svg">
  <path d="M5.83333 3.33333V2.5H7.5V3.33333H12.5V2.5H14.1667V3.33333H15.4167C16.575 3.33333 17.5 4.26667 17.5 5.41667V15.4167C17.5 16.5667 16.575 17.5 15.4167 17.5H4.58333C3.43333 17.5 2.5 16.5667 2.5 15.4167V5.41667C2.5 4.26667 3.43333 3.33333 4.58333 3.33333H5.83333ZM5.83333 5H4.58333C4.35833 5 4.16667 5.18333 4.16667 5.41667V15.4167C4.16667 15.65 4.35833 15.8333 4.58333 15.8333H15.4167C15.65 15.8333 15.8333 15.65 15.8333 15.4167V5.41667C15.8333 5.18333 15.65 5 15.4167 5H14.1667V5.83333H12.5V5H7.5V5.83333H5.83333V5ZM5.83333 10H7.5V8.33333H5.83333V10ZM5.83333 13.3333H7.5V11.6667H5.83333V13.3333ZM9.16667 10H10.8333V8.33333H9.16667V10ZM9.16667 13.3333H10.8333V11.6667H9.16667V13.3333ZM12.5 10H14.1667V8.33333H12.5V10Z" fill="#F7F9F9"/>
</svg>
