<svg width="24" height="24" viewBox="0 0 24 24" fill="none" xmlns="http://www.w3.org/2000/svg">
  <path d="M21.591 7.1465L12.52 1.1575C12.204 0.9475 11.796 0.9475 11.48 1.1575L2.409 7.1475C2.149 7.3205 2 7.6035 2 7.9045V21.0875C2 21.5895 2.418 22.0005 2.929 22.0005H9.567C10.078 22.0005 10.496 21.5905 10.496 21.0875V14.0125H13.504V21.0875C13.504 21.5895 13.922 22.0005 14.433 22.0005H21.072C21.582 22.0005 22 21.5905 22 21.0875V7.9045C22 7.6035 21.841 7.3205 21.591 7.1465ZM20 20.0005L15.5 20.0105L15.511 12.9135C15.511 12.4115 15.093 12.0005 14.583 12.0005H9.44C8.929 12.0005 8.511 12.4105 8.511 12.9135L8.5 20.0005H4V8.7735L12.011 3.4315L20 8.7645V20.0005Z" fill="currentColor"/>
</svg>
