<svg width="20" height="20" viewBox="0 0 20 20" fill="none" xmlns="http://www.w3.org/2000/svg">
  <path d="M16.2501 4.99999H14.1667V3.74999C14.1667 2.59999 13.2334 1.66666 12.0834 1.66666H7.91675C6.76675 1.66666 5.83341 2.59999 5.83341 3.74999V4.99999H3.75008C2.60008 4.99999 1.66675 5.93332 1.66675 7.08332V15.4167C1.66675 16.5667 2.60008 17.5 3.75008 17.5H16.2501C17.4001 17.5 18.3334 16.5667 18.3334 15.4167V7.08332C18.3334 5.93332 17.4001 4.99999 16.2501 4.99999ZM7.50008 3.74999C7.50008 3.51666 7.69175 3.33332 7.91675 3.33332H12.0834C12.3167 3.33332 12.5001 3.51666 12.5001 3.74999V4.99999H7.50008V3.74999ZM16.6667 15.4167C16.6667 15.65 16.4834 15.8333 16.2501 15.8333H3.75008C3.52508 15.8333 3.33341 15.65 3.33341 15.4167V12.8833C3.82508 13.175 4.39175 13.3333 5.00008 13.3333H9.16675V14.1667H10.8334V13.3333H15.0001C15.6084 13.3333 16.1751 13.175 16.6667 12.8833V15.4167ZM16.6667 10.0083C16.6667 10.925 15.9167 11.6667 15.0001 11.6667H10.8334V10.8333H9.16675V11.6667H5.00008C4.08341 11.6667 3.33341 10.9167 3.33341 9.99999V7.08332C3.33341 6.84999 3.52508 6.66666 3.75008 6.66666H16.2501C16.4834 6.66666 16.6667 6.84999 16.6667 7.08332V10.0083Z" fill="#F7F9F9"/>
</svg>
