<svg width="20" height="20" viewBox="0 0 20 20" fill="none" xmlns="http://www.w3.org/2000/svg">
  <path d="M15.2999 4.70001C13.6749 3.06668 11.0416 3.06668 9.40822 4.70001L8.23322 5.87501L7.04989 4.70001L8.23322 3.51667C10.5082 1.24167 14.1999 1.24167 16.4832 3.51667C18.7582 5.80001 18.7582 9.49168 16.4832 11.7667L15.2999 12.95L14.1249 11.7667L15.2999 10.5917C16.9332 8.95834 16.9332 6.32501 15.2999 4.70001ZM13.5332 7.64168L7.64155 13.5333L6.46655 12.3583L12.3582 6.46668L13.5332 7.64168ZM3.51655 8.23334L4.69989 7.05001L5.87489 8.23334L4.69989 9.40834C3.06655 11.0417 3.06655 13.675 4.69989 15.3C6.32489 16.9333 8.95822 16.9333 10.5916 15.3L11.7666 14.125L12.9499 15.3L11.7666 16.4833C9.49155 18.7583 5.79989 18.7583 3.51655 16.4833C1.24155 14.2 1.24155 10.5083 3.51655 8.23334Z" fill="#F7F9F9"/>
</svg>
