<svg width="20" height="20" viewBox="0 0 20 20" fill="none" xmlns="http://www.w3.org/2000/svg">
  <path d="M10.0001 5.83332C8.39175 5.83332 7.08342 7.14166 7.08342 8.74999C7.08342 10.3583 8.39175 11.6667 10.0001 11.6667C11.6084 11.6667 12.9167 10.3583 12.9167 8.74999C12.9167 7.14166 11.6084 5.83332 10.0001 5.83332ZM10.0001 9.99999C9.31091 9.99999 8.75008 9.43916 8.75008 8.74999C8.75008 8.06082 9.31091 7.49999 10.0001 7.49999C10.6892 7.49999 11.2501 8.06082 11.2501 8.74999C11.2501 9.43916 10.6892 9.99999 10.0001 9.99999ZM10.0001 1.66666C6.09425 1.66666 2.91675 4.84416 2.91675 8.74999C2.91675 13.7225 9.26758 18.0133 9.53758 18.1933L10.0001 18.5017L10.4626 18.1933C10.7326 18.0133 17.0834 13.7225 17.0834 8.74999C17.0834 4.84416 13.9059 1.66666 10.0001 1.66666ZM10.0001 16.475C8.61258 15.4408 4.58341 12.145 4.58341 8.74999C4.58341 5.76332 7.01341 3.33332 10.0001 3.33332C12.9867 3.33332 15.4167 5.76332 15.4167 8.74999C15.4167 12.1442 11.3876 15.44 10.0001 16.475Z" fill="#F7F9F9"/>
</svg>
