<svg width="20" height="20" viewBox="0 0 20 20" fill="none" xmlns="http://www.w3.org/2000/svg">
  <path d="M19 10.5C18.9837 9.9156 18.8055 9.34658 18.4844 8.85717C18.1641 8.36867 17.7136 7.97786 17.1835 7.72999C17.3852 7.18087 17.4277 6.58653 17.3101 6.01389C17.1916 5.44035 16.9148 4.91204 16.5122 4.48776C16.0871 4.0852 15.5597 3.80928 14.9861 3.68987C14.4135 3.57226 13.8191 3.61478 13.27 3.81652C13.023 3.28549 12.6331 2.83408 12.1437 2.51384C11.6543 2.19359 11.0853 2.01447 10.5 2C9.9156 2.01538 9.34839 2.19269 8.85989 2.51384C8.37138 2.83498 7.98329 3.2864 7.73813 3.81652C7.18811 3.61478 6.59195 3.57046 6.01751 3.68987C5.44306 3.80747 4.91385 4.08429 4.48867 4.48776C4.0861 4.91294 3.81109 5.44216 3.69439 6.01479C3.57679 6.58743 3.62202 7.18178 3.82466 7.72999C3.29364 7.97786 2.84132 8.36776 2.51926 8.85627C2.19721 9.34477 2.01719 9.9147 2 10.5C2.01809 11.0853 2.19721 11.6543 2.51926 12.1437C2.84132 12.6322 3.29364 13.023 3.82466 13.27C3.62202 13.8182 3.57679 14.4126 3.69439 14.9852C3.81199 15.5587 4.0861 16.0871 4.48776 16.5122C4.91294 16.913 5.44125 17.188 6.01389 17.3065C6.58653 17.4259 7.18087 17.3825 7.72999 17.1835C7.97786 17.7136 8.36776 18.1641 8.85717 18.4853C9.34568 18.8055 9.9156 18.9837 10.5 19C11.0853 18.9855 11.6543 18.8073 12.1437 18.4871C12.6331 18.1668 13.023 17.7145 13.27 17.1844C13.8164 17.4006 14.4153 17.4522 14.9915 17.3327C15.5669 17.2133 16.0952 16.9284 16.5113 16.5122C16.9275 16.0961 17.2133 15.5678 17.3327 14.9915C17.4522 14.4153 17.4006 13.8164 17.1835 13.27C17.7136 13.0221 18.1641 12.6322 18.4853 12.1428C18.8055 11.6543 18.9837 11.0844 19 10.5ZM9.28959 13.9829L6.18758 10.8818L7.35728 9.70392L9.23169 11.5783L13.2121 7.24149L14.4307 8.36867L9.28959 13.9829Z" fill="#1D9BF0"/>
</svg>
