<svg width="24" height="24" viewBox="0 0 24 24" fill="none" xmlns="http://www.w3.org/2000/svg">
  <path d="M7.50092 19.917L7.47092 21H0.471924L0.500924 19.973C0.684924 13.355 4.23692 10.996 7.50092 10.996C8.46392 10.996 9.45092 11.208 10.3709 11.668C9.92692 12.146 9.51992 12.698 9.15892 13.324C8.65192 13.12 8.10492 12.995 7.50092 12.995C4.73392 12.995 2.93092 15.218 2.56292 18.999H7.55992C7.53692 19.301 7.50992 19.599 7.50092 19.917ZM23.4989 19.973L23.5279 21H9.47192L9.50092 19.973C9.68492 13.355 13.2369 10.996 16.5009 10.996C19.7649 10.996 23.3169 13.354 23.5009 19.973H23.4989ZM21.4369 19C21.0699 15.219 19.2669 12.996 16.4989 12.996C13.7309 12.996 11.9289 15.219 11.5609 19H21.4369ZM16.4989 10C15.6999 10 14.9719 9.721 14.3829 9.27C13.5469 8.63 12.9989 7.632 12.9989 6.5C12.9989 4.57 14.5659 3 16.4989 3C18.4319 3 19.9989 4.57 19.9989 6.5C19.9989 7.632 19.4509 8.63 18.6149 9.27C18.0259 9.721 17.2979 10 16.4989 10ZM14.9989 6.5C14.9989 7.327 15.6719 8 16.4989 8C17.3259 8 17.9989 7.327 17.9989 6.5C17.9989 5.673 17.3259 5 16.4989 5C15.6719 5 14.9989 5.673 14.9989 6.5ZM7.49992 3C9.43292 3 10.9999 4.57 10.9999 6.5C10.9999 8.43 9.43292 10 7.49992 10C5.56692 10 3.99992 8.43 3.99992 6.5C3.99992 4.57 5.56692 3 7.49992 3ZM7.49992 5C6.67292 5 5.99992 5.673 5.99992 6.5C5.99992 7.327 6.67292 8 7.49992 8C8.32692 8 8.99992 7.327 8.99992 6.5C8.99992 5.673 8.32692 5 7.49992 5Z" fill="currentColor"/>
</svg>
